<svg width="315" height="204" viewBox="0 0 315 204" fill="none" xmlns="http://www.w3.org/2000/svg">
<path d="M116.912 8.92105C116.912 13.848 112.903 17.8421 107.956 17.8421C103.01 17.8421 99 13.848 99 8.92105C99 3.99409 103.01 6.5567e-06 107.956 6.5567e-06C112.903 6.5567e-06 116.912 3.99409 116.912 8.92105Z" fill="url(#paint0_linear_111_38)"/>
<path d="M116.912 32.7102C116.912 37.6372 112.903 41.6313 107.956 41.6313C103.01 41.6313 99 37.6372 99 32.7102C99 27.7833 103.01 23.7892 107.956 23.7892C112.903 23.7892 116.912 27.7833 116.912 32.7102Z" fill="url(#paint1_linear_111_38)"/>
<path d="M116.912 56.4999C116.912 61.4268 112.903 65.4209 107.956 65.4209C103.01 65.4209 99 61.4268 99 56.4999C99 51.5729 103.01 47.5789 107.956 47.5789C112.903 47.5789 116.912 51.5729 116.912 56.4999Z" fill="url(#paint2_linear_111_38)"/>
<path d="M116.912 80.2893C116.912 85.2163 112.903 89.2104 107.956 89.2104C103.01 89.2104 99 85.2163 99 80.2893C99 75.3624 103.01 71.3683 107.956 71.3683C112.903 71.3683 116.912 75.3624 116.912 80.2893Z" fill="url(#paint3_linear_111_38)"/>
<path d="M116.912 104.079C116.912 109.006 112.903 113 107.956 113C103.01 113 99 109.006 99 104.079C99 99.152 103.01 95.1579 107.956 95.1579C112.903 95.1579 116.912 99.152 116.912 104.079Z" fill="url(#paint4_linear_111_38)"/>
<path d="M140.795 8.92104C140.795 13.848 136.786 17.8421 131.839 17.8421C126.893 17.8421 122.883 13.848 122.883 8.92104C122.883 3.99409 126.893 0 131.839 0C136.786 0 140.795 3.99409 140.795 8.92104Z" fill="url(#paint5_linear_111_38)"/>
<path d="M140.795 32.7102C140.795 37.6372 136.786 41.6313 131.839 41.6313C126.893 41.6313 122.883 37.6372 122.883 32.7102C122.883 27.7833 126.893 23.7892 131.839 23.7892C136.786 23.7892 140.795 27.7833 140.795 32.7102Z" fill="url(#paint6_linear_111_38)"/>
<path d="M140.795 56.4999C140.795 61.4268 136.786 65.4209 131.839 65.4209C126.893 65.4209 122.883 61.4268 122.883 56.4999C122.883 51.5729 126.893 47.5789 131.839 47.5789C136.786 47.5789 140.795 51.5729 140.795 56.4999Z" fill="url(#paint7_linear_111_38)"/>
<path d="M140.795 80.2893C140.795 85.2163 136.786 89.2104 131.839 89.2104C126.893 89.2104 122.883 85.2163 122.883 80.2893C122.883 75.3624 126.893 71.3683 131.839 71.3683C136.786 71.3683 140.795 75.3624 140.795 80.2893Z" fill="url(#paint8_linear_111_38)"/>
<path d="M140.795 104.079C140.795 109.006 136.786 113 131.839 113C126.893 113 122.883 109.006 122.883 104.079C122.883 99.152 126.893 95.1579 131.839 95.1579C136.786 95.1579 140.795 99.152 140.795 104.079Z" fill="url(#paint9_linear_111_38)"/>
<path d="M164.679 8.92104C164.679 13.848 160.669 17.8421 155.723 17.8421C150.776 17.8421 146.766 13.848 146.766 8.92104C146.766 3.99409 150.776 0 155.723 0C160.669 0 164.679 3.99409 164.679 8.92104Z" fill="url(#paint10_linear_111_38)"/>
<path d="M164.679 32.7102C164.679 37.6372 160.669 41.6313 155.723 41.6313C150.776 41.6313 146.766 37.6372 146.766 32.7102C146.766 27.7833 150.776 23.7892 155.723 23.7892C160.669 23.7892 164.679 27.7833 164.679 32.7102Z" fill="url(#paint11_linear_111_38)"/>
<path d="M164.679 56.4999C164.679 61.4268 160.669 65.4209 155.723 65.4209C150.776 65.4209 146.766 61.4268 146.766 56.4999C146.766 51.5729 150.776 47.5789 155.723 47.5789C160.669 47.5789 164.679 51.5729 164.679 56.4999Z" fill="url(#paint12_linear_111_38)"/>
<path d="M164.679 80.2893C164.679 85.2163 160.669 89.2104 155.723 89.2104C150.776 89.2104 146.766 85.2163 146.766 80.2893C146.766 75.3624 150.776 71.3683 155.723 71.3683C160.669 71.3683 164.679 75.3624 164.679 80.2893Z" fill="url(#paint13_linear_111_38)"/>
<path d="M164.679 104.079C164.679 109.006 160.669 113 155.723 113C150.776 113 146.766 109.006 146.766 104.079C146.766 99.152 150.776 95.1579 155.723 95.1579C160.669 95.1579 164.679 99.152 164.679 104.079Z" fill="url(#paint14_linear_111_38)"/>
<path d="M188.562 8.92104C188.562 13.848 184.552 17.8421 179.606 17.8421C174.659 17.8421 170.65 13.848 170.65 8.92104C170.65 3.99409 174.659 0 179.606 0C184.552 0 188.562 3.99409 188.562 8.92104Z" fill="url(#paint15_linear_111_38)"/>
<path d="M188.562 32.7102C188.562 37.6372 184.552 41.6313 179.606 41.6313C174.659 41.6313 170.65 37.6372 170.65 32.7102C170.65 27.7833 174.659 23.7892 179.606 23.7892C184.552 23.7892 188.562 27.7833 188.562 32.7102Z" fill="url(#paint16_linear_111_38)"/>
<path d="M188.562 56.4999C188.562 61.4268 184.552 65.4209 179.606 65.4209C174.659 65.4209 170.65 61.4268 170.65 56.4999C170.65 51.5729 174.659 47.5789 179.606 47.5789C184.552 47.5789 188.562 51.5729 188.562 56.4999Z" fill="url(#paint17_linear_111_38)"/>
<path d="M188.562 80.2893C188.562 85.2163 184.552 89.2104 179.606 89.2104C174.659 89.2104 170.65 85.2163 170.65 80.2893C170.65 75.3624 174.659 71.3683 179.606 71.3683C184.552 71.3683 188.562 75.3624 188.562 80.2893Z" fill="url(#paint18_linear_111_38)"/>
<path d="M188.562 104.079C188.562 109.006 184.552 113 179.606 113C174.659 113 170.65 109.006 170.65 104.079C170.65 99.152 174.659 95.1579 179.606 95.1579C184.552 95.1579 188.562 99.152 188.562 104.079Z" fill="url(#paint19_linear_111_38)"/>
<path d="M212.445 8.92104C212.445 13.848 208.435 17.8421 203.489 17.8421C198.543 17.8421 194.533 13.848 194.533 8.92104C194.533 3.99409 198.543 0 203.489 0C208.435 0 212.445 3.99409 212.445 8.92104Z" fill="url(#paint20_linear_111_38)"/>
<path d="M212.445 32.7102C212.445 37.6372 208.435 41.6313 203.489 41.6313C198.543 41.6313 194.533 37.6372 194.533 32.7102C194.533 27.7833 198.543 23.7892 203.489 23.7892C208.435 23.7892 212.445 27.7833 212.445 32.7102Z" fill="url(#paint21_linear_111_38)"/>
<path d="M212.445 56.4999C212.445 61.4268 208.435 65.4209 203.489 65.4209C198.543 65.4209 194.533 61.4268 194.533 56.4999C194.533 51.5729 198.543 47.5789 203.489 47.5789C208.435 47.5789 212.445 51.5729 212.445 56.4999Z" fill="url(#paint22_linear_111_38)"/>
<path d="M212.445 80.2893C212.445 85.2163 208.435 89.2104 203.489 89.2104C198.543 89.2104 194.533 85.2163 194.533 80.2893C194.533 75.3624 198.543 71.3683 203.489 71.3683C208.435 71.3683 212.445 75.3624 212.445 80.2893Z" fill="url(#paint23_linear_111_38)"/>
<path fill-rule="evenodd" clip-rule="evenodd" d="M194.071 108.875C192.613 107.424 192.613 105.07 194.071 103.619L200.85 96.8659C202.308 95.4143 204.67 95.4143 206.128 96.8659L212.907 103.619C214.364 105.07 214.364 107.424 212.907 108.875C211.45 110.327 209.087 110.327 207.63 108.875L203.489 104.751L199.348 108.875C197.891 110.327 195.528 110.327 194.071 108.875Z" fill="url(#paint24_linear_111_38)"/>
<path d="M0.310709 189.448H36.6637V181.616H13.5676V181.262L22.7077 172.193C33.0129 162.542 35.861 157.843 35.861 152.007C35.861 143.341 28.637 137 17.9694 137C7.45702 137 0 143.367 0 153.194H9.14003C9.14003 147.914 12.5578 144.604 17.8399 144.604C22.8889 144.604 26.6433 147.611 26.6433 152.487C26.6433 156.807 23.9505 159.889 18.7202 165.068L0.310709 182.677V189.448Z" fill="#222922"/>
<path d="M41.4993 179.848H66.7962V189.448H75.9621V179.848H82.746V172.142H75.9621V137.707H63.9998L41.4993 172.395V179.848ZM66.8998 172.142H51.3384V171.738L66.4855 148.318H66.8998V172.142Z" fill="#222922"/>
<path d="M107.643 190.231C113.883 190.231 117.611 187.376 119.32 184.117H119.631V189.448H128.641V163.477C128.641 153.219 120.071 150.137 112.485 150.137C104.121 150.137 97.7 153.775 95.6286 160.849L104.38 162.062C105.312 159.409 107.953 157.135 112.536 157.135C116.886 157.135 119.268 159.308 119.268 163.123V163.275C119.268 165.902 116.446 166.028 109.429 166.761C101.713 167.569 94.334 169.818 94.334 178.559C94.334 186.189 100.056 190.231 107.643 190.231ZM110.077 183.511C106.167 183.511 103.37 181.768 103.37 178.408C103.37 174.896 106.503 173.431 110.698 172.85C113.158 172.521 118.077 171.915 119.294 170.955V175.528C119.294 179.848 115.721 183.511 110.077 183.511Z" fill="#222922"/>
<path d="M144.439 166.71C144.439 161.102 147.909 157.868 152.854 157.868C157.696 157.868 160.596 160.975 160.596 166.155V189.448H169.969V164.74C169.995 155.443 164.558 150.137 156.35 150.137C150.395 150.137 146.304 152.916 144.491 157.236H144.025V150.643H135.066V189.448H144.439V166.71Z" fill="#222922"/>
<path d="M192.256 190.13C199.092 190.13 202.173 186.164 203.649 183.334H204.219V189.448H213.436V137.707H204.038V157.06H203.649C202.225 154.255 199.299 150.137 192.282 150.137C183.091 150.137 175.867 157.161 175.867 170.096C175.867 182.879 182.883 190.13 192.256 190.13ZM194.872 182.627C188.683 182.627 185.421 177.321 185.421 170.045C185.421 162.82 188.632 157.641 194.872 157.641C200.905 157.641 204.219 162.517 204.219 170.045C204.219 177.574 200.853 182.627 194.872 182.627Z" fill="#222922"/>
<path d="M259.823 137.707V170.727C259.823 177.22 255.188 181.869 247.912 181.869C240.611 181.869 236.002 177.22 236.002 170.727V137.707H226.396V171.511C226.396 182.627 234.94 190.231 247.912 190.231C260.833 190.231 269.429 182.627 269.429 171.511V137.707H259.823Z" fill="#222922"/>
<path d="M277.456 204H286.829V183.334H287.217C288.693 186.164 291.774 190.13 298.61 190.13C307.983 190.13 315 182.879 315 170.096C315 157.161 307.776 150.137 298.584 150.137C291.567 150.137 288.641 154.255 287.217 157.06H286.674V150.643H277.456V204ZM286.648 170.045C286.648 162.517 289.962 157.641 295.995 157.641C302.235 157.641 305.446 162.82 305.446 170.045C305.446 177.321 302.183 182.627 295.995 182.627C290.014 182.627 286.648 177.574 286.648 170.045Z" fill="#222922"/>
<defs>
<linearGradient id="paint0_linear_111_38" x1="99" y1="0" x2="211.983" y2="114.982" gradientUnits="userSpaceOnUse">
<stop stop-color="#406AFF"/>
<stop offset="0.337112" stop-color="#2BA3B8"/>
<stop offset="0.649631" stop-color="#52C394"/>
<stop offset="0.99861" stop-color="#E0EE40"/>
<stop offset="1" stop-color="#E0EE40"/>
</linearGradient>
<linearGradient id="paint1_linear_111_38" x1="99" y1="0" x2="211.983" y2="114.982" gradientUnits="userSpaceOnUse">
<stop stop-color="#406AFF"/>
<stop offset="0.337112" stop-color="#2BA3B8"/>
<stop offset="0.649631" stop-color="#52C394"/>
<stop offset="0.99861" stop-color="#E0EE40"/>
<stop offset="1" stop-color="#E0EE40"/>
</linearGradient>
<linearGradient id="paint2_linear_111_38" x1="99" y1="0" x2="211.983" y2="114.982" gradientUnits="userSpaceOnUse">
<stop stop-color="#406AFF"/>
<stop offset="0.337112" stop-color="#2BA3B8"/>
<stop offset="0.649631" stop-color="#52C394"/>
<stop offset="0.99861" stop-color="#E0EE40"/>
<stop offset="1" stop-color="#E0EE40"/>
</linearGradient>
<linearGradient id="paint3_linear_111_38" x1="99" y1="0" x2="211.983" y2="114.982" gradientUnits="userSpaceOnUse">
<stop stop-color="#406AFF"/>
<stop offset="0.337112" stop-color="#2BA3B8"/>
<stop offset="0.649631" stop-color="#52C394"/>
<stop offset="0.99861" stop-color="#E0EE40"/>
<stop offset="1" stop-color="#E0EE40"/>
</linearGradient>
<linearGradient id="paint4_linear_111_38" x1="99" y1="0" x2="211.983" y2="114.982" gradientUnits="userSpaceOnUse">
<stop stop-color="#406AFF"/>
<stop offset="0.337112" stop-color="#2BA3B8"/>
<stop offset="0.649631" stop-color="#52C394"/>
<stop offset="0.99861" stop-color="#E0EE40"/>
<stop offset="1" stop-color="#E0EE40"/>
</linearGradient>
<linearGradient id="paint5_linear_111_38" x1="99" y1="0" x2="211.983" y2="114.982" gradientUnits="userSpaceOnUse">
<stop stop-color="#406AFF"/>
<stop offset="0.337112" stop-color="#2BA3B8"/>
<stop offset="0.649631" stop-color="#52C394"/>
<stop offset="0.99861" stop-color="#E0EE40"/>
<stop offset="1" stop-color="#E0EE40"/>
</linearGradient>
<linearGradient id="paint6_linear_111_38" x1="99" y1="0" x2="211.983" y2="114.982" gradientUnits="userSpaceOnUse">
<stop stop-color="#406AFF"/>
<stop offset="0.337112" stop-color="#2BA3B8"/>
<stop offset="0.649631" stop-color="#52C394"/>
<stop offset="0.99861" stop-color="#E0EE40"/>
<stop offset="1" stop-color="#E0EE40"/>
</linearGradient>
<linearGradient id="paint7_linear_111_38" x1="99" y1="0" x2="211.983" y2="114.982" gradientUnits="userSpaceOnUse">
<stop stop-color="#406AFF"/>
<stop offset="0.337112" stop-color="#2BA3B8"/>
<stop offset="0.649631" stop-color="#52C394"/>
<stop offset="0.99861" stop-color="#E0EE40"/>
<stop offset="1" stop-color="#E0EE40"/>
</linearGradient>
<linearGradient id="paint8_linear_111_38" x1="99" y1="0" x2="211.983" y2="114.982" gradientUnits="userSpaceOnUse">
<stop stop-color="#406AFF"/>
<stop offset="0.337112" stop-color="#2BA3B8"/>
<stop offset="0.649631" stop-color="#52C394"/>
<stop offset="0.99861" stop-color="#E0EE40"/>
<stop offset="1" stop-color="#E0EE40"/>
</linearGradient>
<linearGradient id="paint9_linear_111_38" x1="99" y1="0" x2="211.983" y2="114.982" gradientUnits="userSpaceOnUse">
<stop stop-color="#406AFF"/>
<stop offset="0.337112" stop-color="#2BA3B8"/>
<stop offset="0.649631" stop-color="#52C394"/>
<stop offset="0.99861" stop-color="#E0EE40"/>
<stop offset="1" stop-color="#E0EE40"/>
</linearGradient>
<linearGradient id="paint10_linear_111_38" x1="99" y1="0" x2="211.983" y2="114.982" gradientUnits="userSpaceOnUse">
<stop stop-color="#406AFF"/>
<stop offset="0.337112" stop-color="#2BA3B8"/>
<stop offset="0.649631" stop-color="#52C394"/>
<stop offset="0.99861" stop-color="#E0EE40"/>
<stop offset="1" stop-color="#E0EE40"/>
</linearGradient>
<linearGradient id="paint11_linear_111_38" x1="99" y1="0" x2="211.983" y2="114.982" gradientUnits="userSpaceOnUse">
<stop stop-color="#406AFF"/>
<stop offset="0.337112" stop-color="#2BA3B8"/>
<stop offset="0.649631" stop-color="#52C394"/>
<stop offset="0.99861" stop-color="#E0EE40"/>
<stop offset="1" stop-color="#E0EE40"/>
</linearGradient>
<linearGradient id="paint12_linear_111_38" x1="99" y1="0" x2="211.983" y2="114.982" gradientUnits="userSpaceOnUse">
<stop stop-color="#406AFF"/>
<stop offset="0.337112" stop-color="#2BA3B8"/>
<stop offset="0.649631" stop-color="#52C394"/>
<stop offset="0.99861" stop-color="#E0EE40"/>
<stop offset="1" stop-color="#E0EE40"/>
</linearGradient>
<linearGradient id="paint13_linear_111_38" x1="99" y1="0" x2="211.983" y2="114.982" gradientUnits="userSpaceOnUse">
<stop stop-color="#406AFF"/>
<stop offset="0.337112" stop-color="#2BA3B8"/>
<stop offset="0.649631" stop-color="#52C394"/>
<stop offset="0.99861" stop-color="#E0EE40"/>
<stop offset="1" stop-color="#E0EE40"/>
</linearGradient>
<linearGradient id="paint14_linear_111_38" x1="99" y1="0" x2="211.983" y2="114.982" gradientUnits="userSpaceOnUse">
<stop stop-color="#406AFF"/>
<stop offset="0.337112" stop-color="#2BA3B8"/>
<stop offset="0.649631" stop-color="#52C394"/>
<stop offset="0.99861" stop-color="#E0EE40"/>
<stop offset="1" stop-color="#E0EE40"/>
</linearGradient>
<linearGradient id="paint15_linear_111_38" x1="99" y1="0" x2="211.983" y2="114.982" gradientUnits="userSpaceOnUse">
<stop stop-color="#406AFF"/>
<stop offset="0.337112" stop-color="#2BA3B8"/>
<stop offset="0.649631" stop-color="#52C394"/>
<stop offset="0.99861" stop-color="#E0EE40"/>
<stop offset="1" stop-color="#E0EE40"/>
</linearGradient>
<linearGradient id="paint16_linear_111_38" x1="99" y1="0" x2="211.983" y2="114.982" gradientUnits="userSpaceOnUse">
<stop stop-color="#406AFF"/>
<stop offset="0.337112" stop-color="#2BA3B8"/>
<stop offset="0.649631" stop-color="#52C394"/>
<stop offset="0.99861" stop-color="#E0EE40"/>
<stop offset="1" stop-color="#E0EE40"/>
</linearGradient>
<linearGradient id="paint17_linear_111_38" x1="99" y1="0" x2="211.983" y2="114.982" gradientUnits="userSpaceOnUse">
<stop stop-color="#406AFF"/>
<stop offset="0.337112" stop-color="#2BA3B8"/>
<stop offset="0.649631" stop-color="#52C394"/>
<stop offset="0.99861" stop-color="#E0EE40"/>
<stop offset="1" stop-color="#E0EE40"/>
</linearGradient>
<linearGradient id="paint18_linear_111_38" x1="99" y1="0" x2="211.983" y2="114.982" gradientUnits="userSpaceOnUse">
<stop stop-color="#406AFF"/>
<stop offset="0.337112" stop-color="#2BA3B8"/>
<stop offset="0.649631" stop-color="#52C394"/>
<stop offset="0.99861" stop-color="#E0EE40"/>
<stop offset="1" stop-color="#E0EE40"/>
</linearGradient>
<linearGradient id="paint19_linear_111_38" x1="99" y1="0" x2="211.983" y2="114.982" gradientUnits="userSpaceOnUse">
<stop stop-color="#406AFF"/>
<stop offset="0.337112" stop-color="#2BA3B8"/>
<stop offset="0.649631" stop-color="#52C394"/>
<stop offset="0.99861" stop-color="#E0EE40"/>
<stop offset="1" stop-color="#E0EE40"/>
</linearGradient>
<linearGradient id="paint20_linear_111_38" x1="99" y1="0" x2="211.983" y2="114.982" gradientUnits="userSpaceOnUse">
<stop stop-color="#406AFF"/>
<stop offset="0.337112" stop-color="#2BA3B8"/>
<stop offset="0.649631" stop-color="#52C394"/>
<stop offset="0.99861" stop-color="#E0EE40"/>
<stop offset="1" stop-color="#E0EE40"/>
</linearGradient>
<linearGradient id="paint21_linear_111_38" x1="99" y1="0" x2="211.983" y2="114.982" gradientUnits="userSpaceOnUse">
<stop stop-color="#406AFF"/>
<stop offset="0.337112" stop-color="#2BA3B8"/>
<stop offset="0.649631" stop-color="#52C394"/>
<stop offset="0.99861" stop-color="#E0EE40"/>
<stop offset="1" stop-color="#E0EE40"/>
</linearGradient>
<linearGradient id="paint22_linear_111_38" x1="99" y1="0" x2="211.983" y2="114.982" gradientUnits="userSpaceOnUse">
<stop stop-color="#406AFF"/>
<stop offset="0.337112" stop-color="#2BA3B8"/>
<stop offset="0.649631" stop-color="#52C394"/>
<stop offset="0.99861" stop-color="#E0EE40"/>
<stop offset="1" stop-color="#E0EE40"/>
</linearGradient>
<linearGradient id="paint23_linear_111_38" x1="99" y1="0" x2="211.983" y2="114.982" gradientUnits="userSpaceOnUse">
<stop stop-color="#406AFF"/>
<stop offset="0.337112" stop-color="#2BA3B8"/>
<stop offset="0.649631" stop-color="#52C394"/>
<stop offset="0.99861" stop-color="#E0EE40"/>
<stop offset="1" stop-color="#E0EE40"/>
</linearGradient>
<linearGradient id="paint24_linear_111_38" x1="99" y1="0" x2="211.983" y2="114.982" gradientUnits="userSpaceOnUse">
<stop stop-color="#406AFF"/>
<stop offset="0.337112" stop-color="#2BA3B8"/>
<stop offset="0.649631" stop-color="#52C394"/>
<stop offset="0.99861" stop-color="#E0EE40"/>
<stop offset="1" stop-color="#E0EE40"/>
</linearGradient>
</defs>
</svg>
